<?xml version="1.0" standalone="no"?>
<!DOCTYPE svg PUBLIC "-//W3C//DTD SVG 20010904//EN"
 "http://www.w3.org/TR/2001/REC-SVG-20010904/DTD/svg10.dtd">
<svg version="1.0" xmlns="http://www.w3.org/2000/svg"
 width="150.000000pt" height="150.000000pt" viewBox="0 0 150.000000 150.000000"
 preserveAspectRatio="xMidYMid meet">
<metadata>
Created by potrace 1.11, written by Peter Selinger 2001-2013
</metadata>
<g transform="translate(0.000000,150.000000) scale(0.100000,-0.100000)"
fill="#000000" stroke="none">
<path d="M521 1332 c-1 -7 -6 -10 -12 -7 -6 4 -9 0 -7 -11 2 -12 -2 -18 -12
-16 -12 2 -12 0 2 -11 15 -12 15 -14 0 -26 -15 -11 -15 -11 3 -6 19 5 19 4 2
-9 -12 -9 -14 -16 -8 -21 6 -3 11 -11 11 -16 0 -6 -5 -7 -12 -3 -7 5 -8 3 -2
-7 5 -8 7 -23 6 -34 -2 -17 -1 -17 7 -5 18 26 12 1 -6 -27 -10 -15 -13 -24 -7
-20 7 4 11 -4 10 -22 -1 -16 -4 -27 -8 -25 -4 2 -9 0 -13 -6 -3 -5 0 -10 7
-10 9 0 10 -3 2 -8 -6 -4 -10 -15 -8 -24 1 -10 -3 -21 -8 -25 -7 -4 -8 -1 -3
7 5 9 4 11 -4 6 -8 -5 -9 -12 -2 -20 7 -9 4 -17 -10 -29 -11 -10 -17 -22 -14
-27 3 -6 2 -10 -4 -10 -6 0 -7 -8 -4 -17 5 -12 2 -15 -9 -10 -13 4 -15 1 -12
-19 3 -19 1 -24 -8 -18 -10 5 -10 4 -1 -6 10 -11 9 -18 -5 -34 -16 -20 -16
-20 1 -7 16 13 17 12 8 -12 -7 -18 -7 -27 2 -31 9 -3 8 -5 -1 -5 -8 -1 -10 -6
-5 -13 10 -17 13 -39 4 -34 -4 3 -7 -4 -7 -14 0 -10 5 -16 10 -13 5 4 7 -1 3
-10 -3 -9 -2 -19 4 -22 5 -4 7 -11 3 -16 -3 -5 0 -17 8 -26 11 -14 11 -16 -2
-8 -11 7 -10 2 4 -19 10 -16 13 -25 7 -22 -6 4 -11 2 -11 -3 0 -6 5 -11 11
-11 5 0 7 -4 4 -10 -3 -5 0 -10 7 -10 9 0 9 -3 -2 -10 -11 -7 -11 -10 -2 -10
7 0 11 -4 8 -8 -3 -5 1 -20 9 -35 9 -17 10 -29 4 -33 -6 -3 -9 -16 -8 -27 3
-47 -1 -68 -13 -61 -7 5 -9 0 -6 -14 4 -13 2 -20 -6 -19 -6 1 -11 -7 -11 -18
0 -11 -8 -21 -18 -23 -9 -2 -17 -10 -17 -18 0 -9 -5 -12 -12 -8 -7 5 -9 2 -5
-9 4 -12 2 -14 -10 -10 -12 5 -14 3 -8 -7 6 -10 4 -12 -8 -7 -10 3 -17 2 -17
-3 0 -5 -6 -7 -14 -4 -8 3 -17 0 -22 -7 -5 -8 -3 -10 6 -4 9 6 11 4 5 -4 -5
-9 -11 -9 -17 -3 -7 7 -15 7 -24 -1 -36 -32 -44 -37 -44 -27 0 5 -5 10 -12 10
-6 0 -8 -3 -5 -7 9 -9 -24 -32 -47 -33 -12 0 -16 -5 -12 -15 4 -13 2 -14 -14
-5 -16 8 -20 8 -18 -2 2 -8 -6 -13 -19 -12 -15 1 -20 -3 -15 -14 4 -11 2 -13
-8 -7 -10 6 -12 4 -7 -8 4 -12 2 -14 -10 -10 -13 5 -15 2 -10 -11 4 -10 3 -15
-3 -11 -6 3 -10 -3 -10 -14 0 -21 2 -21 448 -21 247 0 452 3 455 7 4 3 1 13
-6 21 -10 13 -9 14 3 7 13 -8 13 -7 0 10 -12 14 -12 19 -2 23 10 3 10 7 2 17
-9 10 -7 20 5 38 13 20 13 26 3 30 -9 4 -9 6 -1 6 8 1 9 10 3 32 -8 26 -7 30
6 25 9 -3 12 -1 9 4 -3 6 -14 10 -23 10 -10 0 -13 3 -7 8 12 8 13 32 2 49 -6
9 -3 11 10 6 28 -9 63 -45 56 -56 -3 -6 -1 -7 5 -3 8 4 16 -3 22 -18 5 -14 14
-26 20 -26 6 0 8 -5 5 -10 -4 -6 -1 -17 5 -25 7 -8 10 -21 7 -30 -4 -8 -2 -17
4 -21 6 -3 6 -11 1 -17 -4 -7 -7 -22 -6 -35 1 -15 -3 -21 -11 -18 -8 3 -11 -2
-8 -15 4 -15 14 -19 45 -19 35 0 40 3 35 19 -3 11 2 30 11 42 12 17 12 20 1
14 -11 -7 -12 -6 -2 6 7 9 14 24 16 35 1 10 7 25 11 33 7 10 5 12 -5 6 -10 -6
-9 -3 2 11 16 19 15 49 -1 39 -4 -3 -6 4 -3 15 4 15 0 20 -13 21 -18 0 -18 1
1 9 19 7 19 8 2 15 -13 5 -15 11 -7 20 8 10 8 15 -1 21 -8 4 -9 3 -5 -4 4 -7
3 -12 -3 -12 -14 0 -7 48 9 63 10 10 12 8 7 -6 -4 -11 -3 -16 4 -12 6 4 13 -2
16 -14 3 -11 10 -18 16 -14 6 4 8 -2 4 -16 -3 -15 1 -28 12 -38 10 -8 17 -26
15 -39 -1 -16 3 -24 14 -24 8 0 13 -3 9 -6 -3 -4 1 -13 9 -21 17 -17 79 -20
98 -4 9 8 16 7 26 -2 10 -9 11 -9 6 1 -10 18 4 38 15 21 7 -11 9 -10 9 4 0 12
4 16 13 11 6 -4 3 2 -7 14 -21 24 -31 29 -20 10 5 -9 3 -9 -9 1 -9 7 -14 17
-11 22 3 5 2 9 -3 8 -22 -4 -33 3 -33 22 0 13 -4 18 -12 13 -8 -5 -9 -2 -5 9
4 12 1 17 -11 17 -10 0 -13 3 -7 8 14 10 17 32 4 32 -8 0 -7 6 2 17 10 11 10
14 2 9 -9 -5 -13 0 -13 13 0 12 -4 21 -10 21 -5 0 -9 3 -9 8 3 19 -2 33 -11
27 -5 -3 -10 1 -10 9 0 9 -4 16 -10 16 -5 0 -10 7 -10 16 0 8 -4 13 -9 10 -11
-7 -53 39 -44 49 5 4 3 5 -3 2 -6 -4 -20 4 -30 18 -10 13 -21 22 -26 19 -4 -3
-8 3 -8 12 0 10 -3 15 -6 12 -3 -3 -17 5 -31 18 -14 13 -29 22 -33 19 -4 -3
-10 4 -13 15 -3 13 -10 18 -21 14 -11 -4 -16 -1 -16 11 0 9 -4 14 -9 11 -5 -3
-12 1 -15 10 -3 8 -10 13 -15 10 -5 -3 -12 1 -15 10 -3 8 -11 12 -16 9 -6 -4
-10 -3 -9 2 3 19 -2 34 -9 29 -5 -3 -15 6 -22 19 -7 14 -20 25 -28 25 -9 0
-13 3 -9 6 6 6 -1 17 -35 55 -21 22 -23 34 -6 23 6 -4 3 4 -8 18 -10 14 -22
24 -26 21 -4 -2 -5 4 -1 13 5 13 3 15 -8 9 -11 -6 -12 -5 -2 5 10 11 9 16 -5
27 -9 8 -11 12 -4 8 6 -3 12 -2 12 3 0 6 -8 13 -17 16 -12 5 -14 9 -5 18 7 7
12 20 12 30 0 10 6 18 13 18 9 0 9 2 -1 9 -8 4 -13 11 -13 15 3 19 0 26 -13
26 -8 0 -13 8 -11 18 3 18 -23 54 -35 47 -4 -2 -7 2 -7 10 0 8 4 12 9 9 4 -3
5 2 2 10 -3 9 -10 13 -15 11 -4 -3 -17 3 -29 15 -11 11 -25 20 -31 20 -5 0 -7
5 -4 10 3 6 -1 10 -10 10 -9 0 -13 5 -10 10 3 6 -1 10 -9 10 -9 0 -16 8 -16
18 0 13 -2 14 -9 3 -7 -11 -9 -11 -14 0 -4 11 -6 11 -6 1z m143 -914 c-5 -9
-2 -9 9 1 11 9 17 10 17 2 0 -6 7 -11 16 -11 18 0 46 -25 37 -34 -4 -3 2 -6
13 -7 11 0 14 -3 6 -6 -10 -4 -9 -8 5 -19 13 -9 14 -13 4 -14 -10 0 -11 -3 -2
-14 6 -7 8 -22 4 -31 -5 -14 -3 -16 7 -10 10 6 12 4 7 -8 -4 -10 -1 -17 6 -17
8 0 6 -4 -3 -10 -11 -7 -11 -10 -2 -10 7 0 10 -4 7 -10 -3 -5 -2 -10 3 -10 9
0 25 -40 26 -65 1 -5 7 -15 15 -21 10 -8 11 -13 2 -18 -6 -4 -9 -12 -5 -17 3
-5 10 -7 15 -4 5 4 9 1 9 -4 0 -6 -5 -11 -11 -11 -8 0 -7 -5 1 -15 11 -13 10
-14 -6 -8 -16 6 -17 5 -6 -9 8 -10 9 -19 3 -22 -5 -4 -12 -2 -16 4 -3 5 -17
10 -31 10 -13 0 -24 3 -24 8 0 4 -11 12 -25 19 -14 6 -22 7 -19 1 3 -5 -3 -4
-14 3 -12 7 -18 18 -14 24 3 5 -2 4 -11 -4 -11 -9 -17 -10 -17 -2 0 6 -3 10
-7 10 -22 -4 -33 2 -27 14 5 7 0 6 -11 -3 -15 -12 -17 -12 -10 -1 6 11 4 13
-8 8 -10 -3 -17 -2 -17 4 0 6 -4 7 -10 4 -5 -3 -10 1 -10 9 0 9 -6 16 -12 16
-9 0 -8 4 2 10 8 5 11 10 6 10 -5 0 -2 8 5 17 12 14 12 16 -1 9 -9 -4 -8 -1 3
7 19 16 24 32 5 21 -7 -4 -8 -3 -4 4 4 7 15 12 24 13 9 0 12 3 6 5 -7 3 -10
14 -7 24 3 11 8 18 12 16 3 -2 6 16 5 40 0 33 2 41 11 34 9 -8 11 -4 7 15 -3
16 0 25 8 25 9 0 9 4 -1 17 -8 10 -9 14 -2 10 6 -4 14 -3 18 3 3 5 8 10 11 10
3 0 2 -6 -2 -12z m-120 -70 c-4 -6 -10 -5 -15 3 -6 10 -9 10 -9 2 0 -7 8 -17
18 -22 9 -6 12 -11 5 -11 -7 0 -10 -7 -6 -17 4 -10 2 -14 -4 -10 -5 3 -10 0
-10 -8 0 -8 3 -12 7 -10 4 2 7 -2 7 -10 0 -8 -4 -12 -9 -9 -7 5 -12 -10 -9
-28 0 -5 -4 -8 -10 -8 -5 0 -7 -4 -4 -10 3 -5 0 -10 -7 -10 -9 0 -9 -3 2 -10
8 -5 12 -10 8 -10 -5 0 -9 1 -10 2 -2 1 -13 -4 -25 -11 -15 -7 -23 -8 -23 -1
0 5 -8 10 -17 10 -9 0 -13 3 -10 7 4 3 2 12 -5 20 -9 11 -7 12 7 7 14 -6 16
-4 10 6 -6 10 -4 12 9 7 10 -4 15 -3 11 4 -4 5 -1 16 5 24 6 8 8 20 4 27 -6 9
-3 9 9 -1 15 -12 17 -12 11 3 -3 9 -1 16 5 16 6 0 8 7 5 15 -4 8 -2 15 4 15 5
0 12 9 15 20 3 13 10 18 21 14 9 -3 13 -11 10 -16z"/>
</g>
</svg>
